<?xml version="1.0" encoding="utf-8" ?>
<svg
	xmlns="http://www.w3.org/2000/svg" version="1.1"
	width="1260" height="1000">

	<g transform="translate(630, 500) scale(0.25, 0.25)">

		<g opacity="0.95">
			<g fill="#455a64" transform="translate(-480, -480)">
				<rect x="0" y="0" width="960" height="960"/>
				<rect x="1000" y="0" width="960" height="960"/>
				<rect x="2000" y="0" width="960" height="960"/>
				<rect x="-1000" y="0" width="960" height="960"/>
				<rect x="-2000" y="0" width="960" height="960"/>

				<rect x="0" y="-1000" width="960" height="960"/>
				<rect x="1000" y="-1000" width="960" height="960"/>
				<rect x="2000" y="-1000" width="960" height="960"/>
				<rect x="-1000" y="-1000" width="960" height="960"/>
				<rect x="-2000" y="-1000" width="960" height="960"/>

				<rect x="2000" y="-2000" width="960" height="960"/>
	<!--			<rect x="-1000" y="-2000" width="960" height="960"/>-->
	<!--			<rect x="-2000" y="-2000" width="960" height="960"/>-->

				<rect x="2000" y="1000" width="960" height="960"/>
				<rect x="-1000" y="1000" width="960" height="960"/>
				<rect x="-2000" y="1000" width="960" height="960"/>

				<rect x="1000" y="2000" width="960" height="960"/>
			</g>

			<g fill="#546e7a" transform="translate(-480, -480)">
				<rect x="0" y="1000" width="960" height="960"/>
				<rect x="0" y="2000" width="960" height="960"/>
				<rect x="-1000" y="2000" width="960" height="960"/>
				<rect x="0" y="-2000" width="960" height="960"/>
				<rect x="1000" y="-2000" width="960" height="960"/>
				<rect x="1000" y="1000" width="960" height="960"/>
			</g>
		</g>

		<g fill="#cfd8dc">
			<g transform="translate(-520, -20)">
				<rect x="0" y="500" width="1040" height="40"/>
				<rect x="-1000" y="-500" width="1040" height="40"/>
				<rect x="1000" y="-500" width="1040" height="40"/>
				<rect x="1000" y="-1500" width="1040" height="40"/>
				<rect x="2000" y="-1500" width="1040" height="40"/>
				<rect x="-2000" y="500" width="1040" height="40"/>
				<rect x="2000" y="1500" width="1040" height="40"/>
				<rect x="-2000" y="-1500" width="1040" height="40"/>
			</g>
			<g transform="translate(-20, -520)">
				<rect x="-500" y="0" width="40" height="1040"/>
				<rect x="500" y="2000" width="40" height="1040"/>
				<rect x="-500" y="-2000" width="40" height="1040"/>
			</g>
		</g>
		<g fill="#ff1744">
			<g transform="translate(-520, -20)">
				<rect x="0" y="-500" width="1040" height="40"/>
				<rect x="1000" y="500" width="1040" height="40"/>
				<rect x="-2000" y="1500" width="1040" height="40"/>
				<rect x="-1000" y="-1500" width="1040" height="40"/>
			</g>
			<g transform="translate(-20, -520)">
				<rect x="-500" y="1000" width="40" height="1040"/>
				<rect x="1500" y="-2000" width="40" height="1040"/>
				<rect x="-1500" y="2000" width="40" height="1040"/>
				<rect x="1500" y="2000" width="40" height="1040"/>
			</g>
		</g>

		<g>
			<defs>
				<linearGradient id="three_opacity_stops">
					<stop offset="0%" style="stop-color: #819ca9; stop-opacity: 0.1"/>
					<stop offset="50%" style="stop-color: #819ca9; stop-opacity: 0.3"/>
					<stop offset="100%" style="stop-color: #819ca9; stop-opacity: 1.0"/>
				</linearGradient>
			</defs>

			<rect
				x="-250" y="750" rx="150"
				width="1500" height="500"
				transform=""
				fill="url(#three_opacity_stops)"/>
		</g>

		<g transform="translate(1000, 1000)">
			<rect
				x="250" y="250" rx="150"
				width="500" height="500"
				transform="translate(-500, -500)"
				fill="#819ca9"/>

			<g opacity="0.7" fill="#cfd8dc" transform="translate(100, 0)">
				<circle cx="0" cy="-80" r="50"/>
				<circle cx="0" cy="80" r="50"/>
			</g>
		</g>

		<text
			y="-800"
			text-anchor="middle"
			dominant-baseline="central"
			font-size="576"
			font-family="Open Sans"
			font-weight="bold"
			style="fill: #cfd8dc; stroke: #424242; stroke-width: 16"
				>Anticipainter</text>
	</g>
</svg>
