<?xml version="1.0" encoding="utf-8" ?>
<svg
	xmlns="http://www.w3.org/2000/svg" version="1.1"
	width="1260" height="1000"
	viewBox="0 0 1260 1000">

	<mask id="mask">
		<rect width="1260" height="1000" fill="white"/>
	</mask>

	<g mask="url(#mask)">
		<g transform="translate(630, 500) scale(0.5, 0.5)">

			<g fill="#546e7a" transform="translate(-480, -480)">
				<rect x="0" y="0" width="960" height="960"/>
				<rect x="1000" y="0" width="960" height="960"/>
				<rect x="-1000" y="0" width="960" height="960"/>
				<rect x="0" y="-1000" width="960" height="960"/>
				<rect x="1000" y="-1000" width="960" height="960"/>
		<!--		<rect x="-1000" y="-1000" width="960" height="960"/>-->
				<rect x="0" y="1000" width="960" height="960"/>
		<!--		<rect x="1000" y="1000" width="960" height="960"/>-->
				<rect x="-1000" y="1000" width="960" height="960"/>
			</g>

			<g fill="#cfd8dc">
				<g transform="translate(-520, -20)">
					<rect x="0" y="500" width="1040" height="40"/>
					<rect x="-1000" y="-500" width="1040" height="40"/>
					<rect x="1000" y="-500" width="1040" height="40"/>
				</g>
				<g transform="translate(-20, -520)">
					<rect x="-500" y="-1000" width="40" height="1040"/>
					<rect x="500" y="1000" width="40" height="1040"/>
				</g>
			</g>
			<g fill="#ff1744">
				<g transform="translate(-520, -20)">
					<rect x="0" y="-500" width="1040" height="40"/>
					<rect x="1000" y="500" width="1040" height="40"/>
				</g>
				<g transform="translate(-20, -520)">
					<rect x="-500" y="1000" width="40" height="1040"/>
				</g>
			</g>

			<rect
				x="250" y="250" rx="150"
				width="500" height="500"
				transform="translate(-500, -500)"
				fill="#819ca9"/>

			<g id="eyes" opacity="1.0">
				<g opacity="0.7" fill="#cfd8dc" transform="translate(100, 0)">
					<circle cx="0" cy="-80" r="50"/>
					<circle cx="0" cy="80" r="50"/>
				</g>
			</g>
		</g>
	</g>
</svg>
